<?xml version="1.0" standalone="no"?>
<!DOCTYPE svg PUBLIC "-//W3C//DTD SVG 20010904//EN"
 "http://www.w3.org/TR/2001/REC-SVG-20010904/DTD/svg10.dtd">
<svg version="1.0" xmlns="http://www.w3.org/2000/svg"
 width="128.000000pt" height="128.000000pt" viewBox="0 0 128.000000 128.000000"
 preserveAspectRatio="xMidYMid meet">

<g transform="translate(0.000000,128.000000) scale(0.100000,-0.100000)"
fill="#000000" stroke="none">
<path d="M279 1267 c-103 -29 -199 -112 -247 -215 l-27 -57 0 -355 0 -355 32
-66 c39 -80 111 -150 191 -187 l57 -27 355 0 355 0 57 27 c80 37 152 107 191
187 l32 66 3 320 c4 346 -1 394 -46 478 -34 63 -109 132 -180 165 l-57 27
-335 2 c-245 2 -347 -1 -381 -10z m611 -382 l0 -85 -180 0 -180 0 -12 -25
c-20 -44 -1 -52 140 -57 106 -4 134 -8 169 -26 112 -58 140 -210 56 -303 -66
-73 -71 -74 -318 -74 l-220 0 -3 83 -3 82 200 0 c168 0 202 2 215 16 40 40 10
52 -140 56 -122 3 -133 5 -172 30 -145 96 -118 315 45 374 27 9 93 13 221 14
l182 0 0 -85z"/>
</g>
</svg>
